<?xml version="1.0" standalone="no"?>
<!DOCTYPE svg PUBLIC "-//W3C//DTD SVG 20010904//EN"
 "http://www.w3.org/TR/2001/REC-SVG-20010904/DTD/svg10.dtd">
<svg version="1.0" xmlns="http://www.w3.org/2000/svg"
 width="550.000000pt" height="550.000000pt" viewBox="0 0 550.000000 550.000000"
 preserveAspectRatio="xMidYMid meet">
<metadata>
Created by potrace 1.14, written by Peter Selinger 2001-2017
</metadata>
<g transform="translate(0.000000,550.000000) scale(0.100000,-0.100000)"
fill="#000000" stroke="none">
<path d="M485 5480 c-182 -49 -333 -170 -413 -331 -77 -156 -72 27 -71 -2409
0 -2133 0 -2187 19 -2255 56 -202 197 -364 382 -438 35 -14 79 -29 98 -33 19
-5 1023 -9 2230 -11 2378 -2 2257 -5 2383 51 140 62 250 166 316 301 77 157
71 -47 68 2420 -2 2079 -3 2213 -20 2260 -77 219 -216 361 -427 437 l-65 23
-2215 2 c-2130 1 -2218 0 -2285 -17z"/>
</g>
</svg>
